<svg xmlns="http://www.w3.org/2000/svg" viewBox="0 0 96 96" role="img" aria-label="Battle Machine"><defs><linearGradient id="g" x1="0" y1="0" x2="0" y2="1"><stop offset="0" stop-color="#8ad86e"/><stop offset="1" stop-color="#54b23a"/></linearGradient></defs><path d="M48 9 84 21v30c0 20-15 32-36 39C27 83 12 71 12 51V21z" fill="#1f150d" transform="translate(0,4)"/><path d="M48 9 84 21v30c0 20-15 32-36 39C27 83 12 71 12 51V21z" fill="url(#g)" stroke="#1f150d" stroke-width="5" stroke-linejoin="round"/><g transform="translate(24,25) scale(0.48)" fill="#fffef9" stroke="#1f150d" stroke-width="7" stroke-linejoin="round" stroke-linecap="round"><path d="M10 78c0-38 22-64 54-70-8 10-12 20-12 30 14-6 26-4 34 4-16 2-26 10-30 22-4 14-18 22-46 14z"/></g></svg>