<svg xmlns="http://www.w3.org/2000/svg" viewBox="0 0 96 96" role="img" aria-label="Reflector"><defs><linearGradient id="g" x1="0" y1="0" x2="0" y2="1"><stop offset="0" stop-color="#3f92dd"/><stop offset="1" stop-color="#0058ab"/></linearGradient></defs><path d="M48 9 84 21v30c0 20-15 32-36 39C27 83 12 71 12 51V21z" fill="#1f150d" transform="translate(0,4)"/><path d="M48 9 84 21v30c0 20-15 32-36 39C27 83 12 71 12 51V21z" fill="url(#g)" stroke="#1f150d" stroke-width="5" stroke-linejoin="round"/><g transform="translate(24,25) scale(0.48)" fill="#fffef9" stroke="#1f150d" stroke-width="7" stroke-linejoin="round" stroke-linecap="round"><path d="M50 6c20 0 34 16 34 36S70 78 50 78 16 62 16 42 30 6 50 6z M44 78h12v16H44z M30 82h40v10H30z"/></g></svg>