<svg xmlns="http://www.w3.org/2000/svg" viewBox="0 0 96 96" role="img" aria-label="Archer Queen"><defs><linearGradient id="g" x1="0" y1="0" x2="0" y2="1"><stop offset="0" stop-color="#ffc93d"/><stop offset="1" stop-color="#e79b00"/></linearGradient></defs><path d="M48 7 78 17l-3 34c-1 19-13 29-27 35-14-6-26-16-27-35L18 17z" fill="#1f150d" transform="translate(0,4)"/><path d="M48 7 78 17l-3 34c-1 19-13 29-27 35-14-6-26-16-27-35L18 17z" fill="url(#g)" stroke="#1f150d" stroke-width="5" stroke-linejoin="round"/><g transform="translate(24,25) scale(0.48)" fill="#fffef9" stroke="#1f150d" stroke-width="7" stroke-linejoin="round" stroke-linecap="round"><path d="M30 10c26 10 26 70 0 80l8 6c30-14 30-78 0-92z M28 48h44v8H28z"/></g></svg>